<svg xmlns="http://www.w3.org/2000/svg" version="1.1" xmlns:xlink="http://www.w3.org/1999/xlink" width="512" height="512" x="0" y="0" viewBox="0 0 60 60" style="enable-background:new 0 0 512 512" xml:space="preserve" class=""><g><path d="M2 20a1 1 0 0 0-1 1 28.857 28.857 0 0 0 11.078 22.785 1 1 0 0 0 1.238-1.57A26.872 26.872 0 0 1 3 21a1 1 0 0 0-1-1ZM58 22a1 1 0 0 0 1-1A28.841 28.841 0 0 0 50.776.786a1 1 0 0 0-1.433 1.4A26.851 26.851 0 0 1 57 21a1 1 0 0 0 1 1Z" fill="#de0707" opacity="1" data-original="#000000" class=""></path><path d="M6 20a1 1 0 0 0-1 1 24.957 24.957 0 0 0 8.93 19.136 1 1 0 1 0 1.287-1.53A22.965 22.965 0 0 1 7 21a1 1 0 0 0-1-1ZM46.782 3.83a1 1 0 0 0-.042 1.414A23.006 23.006 0 0 1 52.951 19.5a1 1 0 0 0 1 .936h.066a1 1 0 0 0 .933-1.062A25 25 0 0 0 48.2 3.873a1 1 0 0 0-1.418-.043Z" fill="#de0707" opacity="1" data-original="#000000" class=""></path><path d="M30 0a20.985 20.985 0 0 0-8.732 40.074A4.994 4.994 0 0 0 17 45v10a5.006 5.006 0 0 0 5 5h16a5.006 5.006 0 0 0 5-5v-4.154a10.718 10.718 0 0 0 8.8-8.927 4.04 4.04 0 1 0-2-.123 8.571 8.571 0 0 1-6.8 7.016V45a4.994 4.994 0 0 0-4.268-4.926A20.985 20.985 0 0 0 30 0Zm19 38a2 2 0 1 1 2 2 2 2 0 0 1-2-2Zm-11 4a3 3 0 0 1 3 3v10a3 3 0 0 1-3 3H22a3 3 0 0 1-3-3V45a3 3 0 0 1 3-3Zm-8-2a19 19 0 1 1 19-19 19.021 19.021 0 0 1-19 19Z" fill="#de0707" opacity="1" data-original="#000000" class=""></path><path d="M31 5a1 1 0 0 0-1-1 16.929 16.929 0 0 0-5.313.85 1 1 0 0 0 .626 1.9A14.91 14.91 0 0 1 30 6a1 1 0 0 0 1-1ZM18.768 8.25A17.012 17.012 0 0 0 13 21a1 1 0 0 0 2 0 15.009 15.009 0 0 1 5.09-11.25 1 1 0 1 0-1.322-1.5ZM30 17a4 4 0 1 0 4 4 4 4 0 0 0-4-4Zm0 6a2 2 0 1 1 2-2 2 2 0 0 1-2 2ZM21.293 47.707a1 1 0 0 0 1.414 0l2-2a1 1 0 0 0-1.414-1.414l-2 2a1 1 0 0 0 0 1.414ZM21.293 52.707a1 1 0 0 0 1.414 0l7-7a1 1 0 0 0-1.414-1.414l-7 7a1 1 0 0 0 0 1.414Z" fill="#de0707" opacity="1" data-original="#000000" class=""></path></g></svg>