<svg xmlns="http://www.w3.org/2000/svg" version="1.1" xmlns:xlink="http://www.w3.org/1999/xlink" width="512" height="512" x="0" y="0" viewBox="0 0 64 64" style="enable-background:new 0 0 512 512" xml:space="preserve" class=""><g><path d="M35.733 12.437h8.533a1 1 0 1 0 0-2h-8.533a1 1 0 1 0 0 2zM35.733 16.654h8.533a1 1 0 1 0 0-2h-8.533a1 1 0 1 0 0 2zM35.733 20.873h8.533a1 1 0 1 0 0-2h-8.533a1 1 0 1 0 0 2zM16.533 25.091h27.733a1 1 0 1 0 0-2H16.533a1 1 0 1 0 0 2zM16.533 29.31h22.4a1 1 0 1 0 0-2h-22.4a1 1 0 1 0 0 2zM16.533 33.527h22.4a1 1 0 1 0 0-2h-22.4a1 1 0 1 0 0 2zM16.533 37.745h22.4a1 1 0 1 0 0-2h-22.4a1 1 0 1 0 0 2zM16.533 41.964H33.6a1 1 0 1 0 0-2H16.533a1 1 0 1 0 0 2zM16.533 46.182h17.061a1 1 0 1 0 0-2H16.533a1 1 0 1 0 0 2zM16.533 50.4h19.959a1 1 0 1 0 0-2H16.533a1 1 0 1 0 0 2zM16.533 20.873h14.934a1 1 0 0 0 1-1v-8.437a1 1 0 0 0-1-1H16.533a1 1 0 0 0-1 1v8.437a1 1 0 0 0 1 1zm1-8.436h12.934v6.437H17.533z" fill="#ff0000" opacity="1" data-original="#000000" class=""></path><path d="M56 55.782h-.48c.155-.514.385-1.034.623-1.545.417-.897.848-1.826.848-2.794 0-.761-.006-1.795-.013-2.871-.007-1.162-.015-2.374-.015-3.341 0-.284.006-.604.012-.946.049-2.725.006-4.892-1.009-5.926a1.843 1.843 0 0 0-1.339-.567c-.305 0-.575.047-.826.117V3a1 1 0 0 0-1-1H8a1 1 0 0 0-1 1v54.836a1 1 0 0 0 1 1h33.133V61a1 1 0 0 0 1 1H56a1 1 0 0 0 1-1v-4.218a1 1 0 0 0-1-1zm-14.005.028a.987.987 0 0 0-.862.972v.054H9V4h42.8v32.431a1.85 1.85 0 0 0-.461-.063c-.571 0-1.04.142-1.429.366a2.762 2.762 0 0 0-.377-.628V7.218a1 1 0 0 0-1-1H12.267a1 1 0 0 0-1 1v46.4a1 1 0 0 0 1 1h29.734c.034.45.022.864-.006 1.192zM44.2 28.166c-2.821 0-2.821 3.391-2.821 5.416v8.117c-.743-.735-1.557-1.292-2.384-1.419-.82-.13-1.573.146-2.184.782-3.016 3.147 1.326 7.799 3.658 10.298l.461.496c.217.236.389.493.531.762H13.267v-44.4h34.267V35.43c-.14.024-.274.054-.4.095v-1.943c-.001-3.29-1.152-5.416-2.934-5.416zm-2.268 21.83c-1.748-1.873-5.383-5.769-3.676-7.55.198-.205.325-.206.437-.189 1.191.182 3.178 3.141 4.146 5.084a1 1 0 0 0 1.791-.891 24.571 24.571 0 0 0-1.25-2.195V33.582c0-3.416.555-3.416.821-3.416.217 0 .933 1.064.933 3.416v9.096a1 1 0 1 0 2 0v-4.087c0-.204.045-1.222.84-1.255.512.453.458 3.387.438 4.491-.006.354-.012.688-.012.982a1 1 0 1 0 2 0c0-.284.006-.604.012-.946.015-.808.017-1.56-.007-2.255 0-.007.004-.013.004-.02 0-.204.045-1.221.84-1.254.512.453.458 3.386.438 4.49-.006.355-.012.688-.012.982a1 1 0 1 0 2 0c0-.284.006-.604.012-.946a51.84 51.84 0 0 0 .007-1.839l.002-.009c0-.204.045-1.222.84-1.255.512.453.458 3.386.438 4.49-.006.355-.012.688-.012.982 0 .971.007 2.187.015 3.354.006 1.071.013 2.102.013 2.858 0 .526-.321 1.219-.662 1.952-.336.724-.7 1.52-.876 2.387h-9.45c.088-1.367-.056-3.6-1.6-5.279zM55 60H43.133v-2.218H55z" fill="#ff0000" opacity="1" data-original="#000000" class=""></path></g></svg>