<svg height="512" viewBox="0 0 64 64" width="512" xmlns="http://www.w3.org/2000/svg" xmlns:xlink="http://www.w3.org/1999/xlink"><linearGradient id="New_Gradient_Swatch" gradientUnits="userSpaceOnUse" x1="23" x2="23" y1="62.745" y2="-1.765"><stop offset="0" stop-color="#e93e3a"/><stop offset=".35" stop-color="#ed683c"/><stop offset=".7" stop-color="#f3903f"/><stop offset="1" stop-color="#fdc70c"/></linearGradient><linearGradient id="New_Gradient_Swatch-2" x1="43" x2="43" xlink:href="#New_Gradient_Swatch" y1="62.745" y2="-1.765"/><linearGradient id="New_Gradient_Swatch-3" x1="41" x2="41" xlink:href="#New_Gradient_Swatch" y1="62.745" y2="-1.765"/><linearGradient id="New_Gradient_Swatch-4" x1="39" x2="39" xlink:href="#New_Gradient_Swatch" y1="62.745" y2="-1.765"/><linearGradient id="New_Gradient_Swatch-5" x1="29" x2="29" xlink:href="#New_Gradient_Swatch" y1="62.745" y2="-1.765"/><linearGradient id="New_Gradient_Swatch-6" x1="25" x2="25" xlink:href="#New_Gradient_Swatch" y1="62.745" y2="-1.765"/><linearGradient id="New_Gradient_Swatch-8" x1="21" x2="21" xlink:href="#New_Gradient_Swatch" y1="62.745" y2="-1.765"/><linearGradient id="New_Gradient_Swatch-11" x1="31.935" x2="31.935" xlink:href="#New_Gradient_Swatch" y1="62.745" y2="-1.765"/><linearGradient id="New_Gradient_Swatch-12" x1="37" x2="37" xlink:href="#New_Gradient_Swatch" y1="62.745" y2="-1.765"/><linearGradient id="New_Gradient_Swatch-13" x1="45" x2="45" xlink:href="#New_Gradient_Swatch" y1="62.745" y2="-1.765"/><linearGradient id="New_Gradient_Swatch-14" x1="15" x2="15" xlink:href="#New_Gradient_Swatch" y1="62.745" y2="-1.765"/><g id="Tablet-Article-Columnist-Content-Pencil"><path d="m15 24h16a1 1 0 0 0 1-1v-10a1 1 0 0 0 -1-1h-16a1 1 0 0 0 -1 1v10a1 1 0 0 0 1 1zm1-10h14v8h-14z" fill="url(#New_Gradient_Swatch)"/><path d="m40 13h6v2h-6z" fill="url(#New_Gradient_Swatch-2)"/><path d="m36 17h10v2h-10z" fill="url(#New_Gradient_Swatch-3)"/><path d="m36 21h6v2h-6z" fill="url(#New_Gradient_Swatch-4)"/><path d="m18 28h22v2h-22z" fill="url(#New_Gradient_Swatch-5)"/><path d="m14 32h22v2h-22z" fill="url(#New_Gradient_Swatch-6)"/><path d="m14 36h18v2h-18z" fill="url(#New_Gradient_Swatch)"/><g fill="url(#New_Gradient_Swatch-8)"><path d="m14 40h14v2h-14z"/><path d="m14 44h14v2h-14z"/><path d="m14 48h14v2h-14z"/></g><path d="m59.58 27.08-3.58-3.58v-15.5a6 6 0 0 0 -6-6h-40a6 6 0 0 0 -6 6v48a6 6 0 0 0 6 6h40a6 6 0 0 0 6-6v-23.93l3.58-3.58a1.009 1.009 0 0 0 .29-.7 1.033 1.033 0 0 0 -.29-.71zm-5.58 28.92a4 4 0 0 1 -4 4h-40a4 4 0 0 1 -4-4v-48a4 4 0 0 1 4-4h40a4 4 0 0 1 4 4v13.5l-.08-.08a1 1 0 0 0 -1.41 0l-.51.51v-13.93a2.006 2.006 0 0 0 -2-2h-40a2.006 2.006 0 0 0 -2 2v48a2.006 2.006 0 0 0 2 2h40a2.006 2.006 0 0 0 2-2v-19.93l2-2zm-18.87-12.35.79-2.05 3.48 3.48-2.05.79zm.18 3-1.57.61.61-1.57zm-.48-7.55a1.014 1.014 0 0 0 -.23.35l-3.53 9.19a.988.988 0 0 0 .22 1.07 1.007 1.007 0 0 0 .71.29.922.922 0 0 0 .36-.07l9.19-3.53a1.014 1.014 0 0 0 .35-.23l8.1-8.1v17.93h-40v-48h40v15.93zm6.36 4.95-1.41-1.41 12.02-12.02 1.41 1.41zm-2.83-2.83-1.41-1.41 12.02-12.02 1.41 1.41zm16.27-10.6-4.25-4.25 2.83-2.83 4.25 4.25z" fill="url(#New_Gradient_Swatch-11)"/><path d="m36 13h2v2h-2z" fill="url(#New_Gradient_Swatch-12)"/><path d="m44 21h2v2h-2z" fill="url(#New_Gradient_Swatch-13)"/><path d="m14 28h2v2h-2z" fill="url(#New_Gradient_Swatch-14)"/></g></svg>