<svg xmlns="http://www.w3.org/2000/svg" version="1.1" xmlns:xlink="http://www.w3.org/1999/xlink" width="512" height="512" x="0" y="0" viewBox="0 0 512 512" style="enable-background:new 0 0 512 512" xml:space="preserve" class=""><g><path d="M435.997 332.373c9.553-28.204 14.394-57.607 14.394-87.583V74.85c0-5.511-4.459-10.002-9.97-10-56.413.02-86.348-58.702-86.636-59.28A9.999 9.999 0 0 0 344.82 0h-73.571c-5.012 0-9.492 3.555-10.205 8.516-.889 6.181 3.882 11.484 9.893 11.484h68.005c3.89 6.558 11.448 17.991 22.711 29.438 20.13 20.46 43.718 32.401 68.737 34.912v160.44c0 29.19-4.946 57.793-14.711 85.133l-.688-.003c-50.2 0-91.04 40.841-91.04 91.04 0 9.15 1.369 18.34 4.095 27.077-29.431 21.741-63.847 37.088-99.865 43.789C111.552 470.14 25.97 362.477 25.97 244.79V84.351c25.02-2.511 48.607-14.453 68.737-34.913C105.97 37.991 113.529 26.558 117.418 20h64.866c5.012 0 9.492-3.555 10.205-8.516C193.379 5.303 188.607 0 182.596 0H111.54a9.999 9.999 0 0 0-8.965 5.57c-.293.593-29.956 59.304-86.64 59.279-5.509-.002-9.964 4.491-9.964 10v169.94c0 62.271 21.52 123.205 60.594 171.58 39.22 48.554 94.303 82.139 155.081 94.562 4.773.988 8.27.996 13.048.004 36.985-7.562 71.104-22.436 101.619-44.219 19.778 33.878 60.799 53.905 104.67 41.662 26.95-7.521 54.921-36.209 61.929-63.297 13.714-53.008-19.482-101.462-66.915-112.708zm-24.872 159.524c-36.015-1.918-65.153-31.057-67.071-67.072-2.179-40.917 30.484-74.902 70.936-74.902 38.659 0 71.039 32.393 71.039 71.038.001 40.452-33.986 73.115-74.904 70.936z" fill="#da0707" opacity="1" data-original="#000000" class=""></path><path d="M329.709 328.781c5.428 2.543 11.965-.375 13.784-6.053 1.529-4.776-.913-9.978-5.444-12.127-12.307-5.835-20.25-18.377-20.25-31.997v-79.277c0-48.395-37.937-88.915-86.301-90.67-50.922-1.849-92.938 39.041-92.938 89.559v80.389a35.412 35.412 0 0 1-18.443 31.076c-3.49 1.908-5.699 5.649-5.225 9.598.927 7.72 8.818 11.23 14.818 7.951a55.405 55.405 0 0 0 28.85-48.625V199.08c0-37.595 29.471-69.072 67.042-70.436 39.558-1.436 72.197 30.329 72.197 69.572v80.389c0 21.398 12.525 41.094 31.91 50.176z" fill="#da0707" opacity="1" data-original="#000000" class=""></path><path d="M280.314 350.497c3.845 5.067 8.631 11.374 15.121 14.709a9.962 9.962 0 0 0 4.562 1.107c5.333 0 10.39-4.279 10.092-11.211-.145-3.371-2.361-6.172-5.404-7.632-2.454-1.177-5.918-5.743-8.438-9.064-2.621-3.454-5.097-6.717-8.045-9.036-6.404-5.038-14.427-7.812-22.592-7.812h-25.893c-22.363 0-40.491-18.129-40.491-40.491v-81.163c0-14.862 11.253-27.623 26.072-28.74 16.557-1.248 30.429 11.87 30.429 28.169v69.49c0 4.556-3.223 8.633-7.731 9.295-5.626.827-10.475-3.532-10.475-9.002V202.67c0-5.013-3.555-9.492-8.517-10.205-6.182-.888-11.483 3.884-11.483 9.893v66.169c0 15.31 11.592 28.456 26.858 29.607 17.056 1.286 31.348-12.229 31.348-29.019v-69.004c0-25.743-19.861-47.557-45.566-48.957-27.819-1.516-50.936 20.682-50.936 48.178v81.733c0 33.409 27.083 60.492 60.492 60.492h25.892c3.7 0 7.331 1.254 10.226 3.531.933.736 2.983 3.437 4.479 5.409zM255.96 367.603h-10.409c-15.062 0-29.668-4.793-41.125-13.496a62.912 62.912 0 0 1-3.205-2.604c-6.997-6.092-17.553-11.667-27.548-14.55-13.259-3.825-24.39-2.861-32.273 2.776-4.296 3.072-5.95 9.255-3.157 13.738a10.004 10.004 0 0 0 14.641 2.642c5.608-4.354 24.693 1.325 35.207 10.479a82.086 82.086 0 0 0 4.238 3.444c14.917 11.33 33.818 17.57 53.224 17.57h10.721c6.01 0 10.782-5.303 9.893-11.484-.716-4.961-5.195-8.515-10.207-8.515z" fill="#da0707" opacity="1" data-original="#000000" class=""></path><path d="M359.894 275.996v-74.877c0-71.249-56.228-130.59-127.448-132.621-74.116-2.115-135.084 57.563-135.084 131.211v75.975c0 5.013 3.555 9.492 8.517 10.205 6.182.888 11.483-3.884 11.483-9.893v-75.092c0-60.394 47.661-110.693 108.031-112.415 62.824-1.792 114.502 48.792 114.502 111.219v75.975c0 5.013 3.555 9.492 8.517 10.205 6.181.89 11.482-3.883 11.482-9.892zM443.249 392.524l-42.814 42.813-14.379-16.262c-3.979-4.501-11.109-4.567-15.153.192-3.247 3.821-2.944 9.534.378 13.291l21.215 23.993a10.002 10.002 0 0 0 14.562.447l50.114-50.114c3.543-3.543 4.197-9.223 1.194-13.234-3.742-4.998-10.866-5.375-15.117-1.126zM218.4 13.819c1.61 3.931 5.723 6.478 9.964 6.148 4.356-.338 8.042-3.519 9.012-7.779 1.925-8.455-7.572-15.176-14.927-10.733-4.167 2.518-5.925 7.866-4.049 12.364z" fill="#da0707" opacity="1" data-original="#000000" class=""></path></g></svg>