<svg xmlns="http://www.w3.org/2000/svg" version="1.1" xmlns:xlink="http://www.w3.org/1999/xlink" width="512" height="512" x="0" y="0" viewBox="0 0 128 128" style="enable-background:new 0 0 512 512" xml:space="preserve" class=""><g><path d="M106 72a6 6 0 0 0-3.75 1.32L88.56 68H72v-8h16.56l13.69-5.32a6 6 0 1 0-2.17-5.6L87.44 54H72v-8h11.2l5.44-17.23a6 6 0 1 0-5.83-1.48L78.8 40H72v-9.68a5 5 0 0 0-2-4L55.94 15.79a5 5 0 0 0-4.77-.67l-19 7.21A5 5 0 0 0 29 27v11.13l-9.52 5.55A5 5 0 0 0 17 48v32a5 5 0 0 0 2.76 4.47L29 89.09V100a5 5 0 0 0 3 4.59l19 8.21a4.93 4.93 0 0 0 2 .41 5 5 0 0 0 3-1l14-10.52a5 5 0 0 0 2-4V88h6.8l3.78 12a5.93 5.93 0 0 0-1.58 4 6 6 0 1 0 7.3-5.86L83.2 82H72v-8h15.44l12.64 4.92A6 6 0 1 0 106 72Zm-53.73 30.47L39 96.72V86a5 5 0 0 0-2.76-4.47L27 76.91V67h6.81a6 6 0 1 0 0-6H27V50.87l9.52-5.55A5 5 0 0 0 39 41V30.45l8-3.05v13.41a6 6 0 1 0 6 0V26.08l9 6.74V72h-6.24l-4.21 4.21A6.1 6.1 0 0 0 50 76a6 6 0 1 0 6 6 6.1 6.1 0 0 0-.21-1.55L58.24 78H62v17.18Z" fill="#ffffff" opacity="1" data-original="#000000" class=""></path></g></svg>