<svg xmlns="http://www.w3.org/2000/svg" version="1.1" xmlns:xlink="http://www.w3.org/1999/xlink" width="512" height="512" x="0" y="0" viewBox="0 0 64 64" style="enable-background:new 0 0 512 512" xml:space="preserve" class=""><g><path d="M62 11h-2a2 2 0 0 0-2 2v6h-3v-1a3 3 0 0 0-2.343-2.922l-1.21-2.42A2.983 2.983 0 0 0 48.764 11H15.236a2.983 2.983 0 0 0-2.683 1.658l-1.21 2.42A3 3 0 0 0 9 18v1H6v-6a2 2 0 0 0-2-2H2a2 2 0 0 0-2 2v38a2 2 0 0 0 2 2h2a2 2 0 0 0 2-2v-6h3v1a3 3 0 0 0 2.343 2.922l1.21 2.42A2.983 2.983 0 0 0 15.236 53h33.528a2.983 2.983 0 0 0 2.683-1.658l1.21-2.42A3 3 0 0 0 55 46v-1h3v6a2 2 0 0 0 2 2h2a2 2 0 0 0 2-2V13a2 2 0 0 0-2-2ZM2 51V13h2v38Zm7-8H6v-2h3Zm0-4H6V25h3Zm0-16H6v-2h3Zm5.342-9.447a1 1 0 0 1 .894-.553h33.528a1 1 0 0 1 .894.553L50.382 15H13.618ZM11 29h4v2h-4Zm0 4h4v2h-4Zm38.658 17.447a1 1 0 0 1-.894.553H15.236a1 1 0 0 1-.894-.553L13.618 49h36.764ZM53 35h-4v-2h4Zm0-4h-4v-2h4Zm0-11v7h-4a2 2 0 0 0-2 2v6a2 2 0 0 0 2 2h4v9a1 1 0 0 1-1 1H12a1 1 0 0 1-1-1v-9h4a2 2 0 0 0 2-2v-6a2 2 0 0 0-2-2h-4v-9a1 1 0 0 1 1-1h40a1 1 0 0 1 1 1Zm5 23h-3v-2h3Zm0-4h-3V25h3Zm0-16h-3v-2h3Zm2 28V13h2v38Z" fill="#ffffff" opacity="1" data-original="#000000" class=""></path><path d="M32 23a9 9 0 1 0 9 9 9.01 9.01 0 0 0-9-9Zm0 16a7 7 0 1 1 7-7 7.008 7.008 0 0 1-7 7Z" fill="#ffffff" opacity="1" data-original="#000000" class=""></path><path d="M36 31a1 1 0 0 0-1 1 3 3 0 0 1-3 3 1 1 0 0 0 0 2 5.006 5.006 0 0 0 5-5 1 1 0 0 0-1-1Z" fill="#ffffff" opacity="1" data-original="#000000" class=""></path><path d="M32 19a13 13 0 1 0 13 13 13.015 13.015 0 0 0-13-13Zm0 24a11 11 0 1 1 11-11 11.013 11.013 0 0 1-11 11ZM48 19a3 3 0 1 0 3 3 3 3 0 0 0-3-3Zm0 4a1 1 0 1 1 1-1 1 1 0 0 1-1 1ZM45 42a3 3 0 1 0 3-3 3 3 0 0 0-3 3Zm3-1a1 1 0 1 1-1 1 1 1 0 0 1 1-1ZM19 22a3 3 0 1 0-3 3 3 3 0 0 0 3-3Zm-3 1a1 1 0 1 1 1-1 1 1 0 0 1-1 1ZM16 39a3 3 0 1 0 3 3 3 3 0 0 0-3-3Zm0 4a1 1 0 1 1 1-1 1 1 0 0 1-1 1Z" fill="#ffffff" opacity="1" data-original="#000000" class=""></path></g></svg>