<svg xmlns="http://www.w3.org/2000/svg" version="1.1" xmlns:xlink="http://www.w3.org/1999/xlink" width="512" height="512" x="0" y="0" viewBox="0 0 64 64" style="enable-background:new 0 0 512 512" xml:space="preserve" class=""><g><circle cx="48" cy="43" r="1" fill="#ffffff" opacity="1" data-original="#000000" class=""></circle><path d="M53.969 16.688a1.002 1.002 0 0 0-1.218-.72l-2 .514a1 1 0 1 0 .498 1.937l2-.514c.534-.137.856-.682.72-1.217z" fill="#ffffff" opacity="1" data-original="#000000" class=""></path><path d="M63 35h-4a1 1 0 0 0-1 1v14c0 .551-.448 1-1 1h-2v-3c0-1.103-.897-2-2-2h-1.029c.113-.15.236-.291.333-.455a4.953 4.953 0 0 0-1.295-6.509c2.148-.992 3.358-3.402 2.75-5.775l-.249-.968.969-.249c2.328-.599 4.284-2.067 5.508-4.137s1.567-4.491.97-6.819l-1.244-4.843 2.906-.746c.534-.138.856-.683.72-1.217l-.746-2.906C60.533 3.365 52.339-1.478 44.331.579l-15.496 3.98-.746-2.905a1.005 1.005 0 0 0-1.218-.72l-7.749 1.99a.993.993 0 0 0-.611.46.995.995 0 0 0-.108.758l.746 2.905L.746 11.773a1.002 1.002 0 0 0-.72 1.217l.497 1.938a5.992 5.992 0 0 0 4.035 4.228c.087 2.581.52 5.463 1.261 8.35 1.058 4.117 2.63 7.855 4.426 10.524 2.102 3.122 3.902 3.936 5.208 3.936.278 0 .535-.037.767-.096.105-.027.212-.063.321-.104.055-.005.109-.007.164-.021l10.169-2.612h.002l11.137-2.86.248.968a5.01 5.01 0 0 0 4.845 3.757c.115 0 .232-.014.347-.022a4.948 4.948 0 0 0-.296 3.267c.169.659.475 1.244.862 1.756H43c-1.103 0-2 .897-2 2v3c0 1.103.897 2 2 2h1v1c0 2.757 2.243 5 5 5h7v4a1 1 0 0 0 1 1h6a1 1 0 0 0 1-1V36a1 1 0 0 0-1-1zM26.4 3.12l.497 1.937-5.811 1.493-.497-1.937zm-8.788 32.328c-.227 2.525-.951 4.244-1.891 4.485-.938.245-2.401-.916-3.817-3.019-1.672-2.485-3.146-6.003-4.147-9.905-.674-2.624-1.071-5.228-1.178-7.581a6.006 6.006 0 0 0 1.249-.181l.723-.186c.06 1.77.327 4.277 1.142 7.45 1.347 5.242 3.136 8.264 4.083 9.599a.996.996 0 0 0 1.064.39 1 1 0 0 0 .744-.854c.187-1.625.299-5.133-1.048-10.379-.679-2.641-1.579-5.055-2.602-7.075l1.983-.509c1.014 2.085 1.897 4.524 2.556 7.087 1.004 3.902 1.408 7.694 1.139 10.678zm-7.01-15.45c.641 1.401 1.367 3.312 1.998 5.767.621 2.42.915 4.431 1.032 6.027-.667-1.455-1.38-3.359-2.001-5.778-.627-2.44-.913-4.459-1.029-6.016zm15.775 17.198-7.516 1.93c.344-.88.611-2.018.744-3.5.288-3.205-.136-7.237-1.193-11.354-.654-2.545-1.527-4.972-2.525-7.095l8.681-2.23c1.015 2.088 1.901 4.515 2.561 7.085 2.233 8.701 1.068 14.696-.752 15.164zm12.107-3.109h-.001l-8.993 2.31c1.339-3.424.979-9.399-.424-14.862-.656-2.551-1.529-4.969-2.528-7.093l1.631-.419a4.004 4.004 0 0 1 4.869 2.878 5.956 5.956 0 0 0 2.758 3.672 5.966 5.966 0 0 0 4.547.647l6.907-1.774c.534-.138.856-.683.72-1.217a1.002 1.002 0 0 0-1.218-.72l-6.907 1.774a3.968 3.968 0 0 1-3.031-.431 3.97 3.97 0 0 1-1.838-2.448 6.01 6.01 0 0 0-7.305-4.318L7.33 17.31a4.005 4.005 0 0 1-4.869-2.879l-.249-.969 18.402-4.726h.001l7.749-1.99.003-.001 16.462-4.228c6.938-1.786 14.042 2.415 15.825 9.357l.498 1.938-2.905.746h-.002l-1.847.474a1.001 1.001 0 0 0-.72 1.218c.139.536.686.854 1.218.72l.879-.226 1.243 4.843c.961 3.738-1.3 7.561-5.038 8.521l-1.935.497h-.003l-.002.001zm5.367 4.816a3.006 3.006 0 0 1-3.652-2.159l-.248-.968 11.623-2.985.249.968a3.004 3.004 0 0 1-2.16 3.652zm6.731 5.624a2.975 2.975 0 0 1-1.836 1.378 2.983 2.983 0 0 1-2.272-.323c-.69-.408-1.18-1.06-1.379-1.836s-.085-1.583.323-2.273a2.975 2.975 0 0 1 1.836-1.378 2.99 2.99 0 0 1 2.273.322 2.98 2.98 0 0 1 1.379 1.836 2.987 2.987 0 0 1-.324 2.274zM45 51h-2v-3h10l.001 3zm17 11h-4v-3h4zm0-5H49c-1.654 0-3-1.346-3-3v-1h11c1.654 0 3-1.346 3-3V37h2z" fill="#ffffff" opacity="1" data-original="#000000" class=""></path></g></svg>