<svg xmlns="http://www.w3.org/2000/svg" version="1.1" xmlns:xlink="http://www.w3.org/1999/xlink" width="512" height="512" x="0" y="0" viewBox="0 0 128 128" style="enable-background:new 0 0 512 512" xml:space="preserve" class=""><g><path d="M66 80a40 40 0 1 0-40-40 40 40 0 0 0 40 40zm0-76a36 36 0 1 1-36 36A36 36 0 0 1 66 4z" fill="#ffffff" opacity="1" data-original="#000000" class=""></path><path d="M41.91 40A24.13 24.13 0 0 1 66 15.89a2 2 0 1 0 0-4A28.14 28.14 0 0 0 37.91 40a2 2 0 0 0 4 0zM59 40a7 7 0 1 0 7-7 7 7 0 0 0-7 7zm10 0a3 3 0 1 1-3-3 3 3 0 0 1 3 3z" fill="#ffffff" opacity="1" data-original="#000000" class=""></path><circle cx="74.02" cy="16" r="2" fill="#ffffff" opacity="1" data-original="#000000" class=""></circle><path d="M82 99h3a2 2 0 1 0 0-4h-3a2 2 0 1 0 0 4zM82 120h3a2 2 0 1 0 0-4h-3a2 2 0 1 0 0 4zM51 97a2 2 0 0 0-1.93-2 35.24 35.24 0 0 1 .68 3.84A2 2 0 0 0 51 97zM36.14 123.49a20.46 20.46 0 0 0 2.23-2c7.92-8.21 9.79-19.89 5-31.23a67.17 67.17 0 0 0-3.52-7.21A2.83 2.83 0 0 0 37 81.4a2.88 2.88 0 0 0-2.35 2.44 7.77 7.77 0 0 1-1.32 3.07c-1.25-.62-1.3-3-1.23-5.77v-2.1c-.5-8.92-3.72-16.93-8.83-22a2.77 2.77 0 0 0-3.13-.86c-.61.25-1.63 1-1.63 3 0 2.47-1 8.13-7.87 18.24-6.52 9.66-14.49 24.08-8.59 37.69a20.48 20.48 0 0 0 4.22 6.22 20.1 20.1 0 0 1-1.17-9.43C1.29 100.49 8.25 88.1 14 79.63c5.51-8.18 7.63-13.9 8.29-17.72 3.38 4.36 5.48 10.52 5.87 17.34v1.78c-.07 3.12-.2 8.34 4.21 9.76a3.52 3.52 0 0 0 2.83-.27 6.28 6.28 0 0 0 2.5-3.1c.7 1.37 1.38 2.85 2 4.43 3.3 7.83 3 15.8-.74 22.28a20.29 20.29 0 0 1-2.82 9.36z" fill="#ffffff" opacity="1" data-original="#000000" class=""></path><path d="M33.57 105.75a39.69 39.69 0 0 0-1.88-4.12 2.42 2.42 0 0 0-2.46-1.43 2.31 2.31 0 0 0-1.5.87s0-.09 0-.13v-1.23c-.27-5.18-2-9.85-4.86-12.82a2.4 2.4 0 0 0-2.68-.73 2.46 2.46 0 0 0-1.48 2.48c0 1-.4 4.07-4 9.75s-7.8 13.86-4.57 21.82a12.49 12.49 0 0 0 9.49 7.6 12.74 12.74 0 0 0 2.21.19 12 12 0 0 0 8.94-3.93c4.37-4.84 5.41-11.68 2.79-18.32zm-13.25 18.12a8.51 8.51 0 0 1-6.47-5.17c-2.54-6.25 1.2-13.36 4.24-18.17A35.07 35.07 0 0 0 22 92.65a19.39 19.39 0 0 1 1.76 7.27v.94c0 1.85-.12 5.29 2.83 6.3a2.75 2.75 0 0 0 2.21-.16 3.15 3.15 0 0 0 .73-.55l.33.81c2 5.19 1.29 10.49-2 14.17a8.11 8.11 0 0 1-7.54 2.44zM118 64a10 10 0 1 0-7.33-3.22L92.18 87.41A6 6 0 0 0 90 87h-4.6v-7.51q-1.95 1-4 1.73V87H50.65v-5.78q-2.05-.77-4-1.73V87h-.33c.26.57.51 1.15.76 1.74.32.75.6 1.5.87 2.26H90a2 2 0 0 1 2 2v29a2 2 0 0 1-2 2H42a2 2 0 0 1-.44-.05l-.32.36a24.53 24.53 0 0 1-2.81 2.5A6 6 0 0 0 42 128h48a6 6 0 0 0 6-6V93a6 6 0 0 0-.8-3l18.68-26.91A9.93 9.93 0 0 0 118 64zm-6-10a6 6 0 1 1 6 6 6 6 0 0 1-6-6z" fill="#ffffff" opacity="1" data-original="#000000" class=""></path><circle cx="118" cy="54" r="2" fill="#ffffff" opacity="1" data-original="#000000" class=""></circle><path d="M47 116a30.67 30.67 0 0 1-2.08 3.68A2 2 0 0 0 46 120h3a2 2 0 1 0 0-4zM72 120a4 4 0 0 0 4-4V97a2 2 0 0 0-4 0v19h-5a2 2 0 1 0 0 4z" fill="#ffffff" opacity="1" data-original="#000000" class=""></path></g></svg>