<svg xmlns="http://www.w3.org/2000/svg" version="1.1" xmlns:xlink="http://www.w3.org/1999/xlink" width="512" height="512" x="0" y="0" viewBox="0 0 510.998 510.998" style="enable-background:new 0 0 512 512" xml:space="preserve"><g><path d="M391.381 481.659h99.618c5.52 0 9.999-4.47 9.999-9.999V39.338c0-5.53-4.48-9.999-9.999-9.999H202.114a9.99 9.99 0 0 0-9.999 9.999v89.355M192.115 305.425V471.66a9.99 9.99 0 0 0 9.999 9.999h99.613" style="stroke-width:20;stroke-linecap:round;stroke-linejoin:round;stroke-miterlimit:10;" fill="none" stroke="#ffffff" stroke-width="20" stroke-linecap="round" stroke-linejoin="round" stroke-miterlimit="10" data-original="#000000" opacity="1"></path><circle cx="235.515" cy="213.067" r="94.085" style="stroke-width:20;stroke-linecap:round;stroke-linejoin:round;stroke-miterlimit:10;" fill="none" stroke="#ffffff" stroke-width="20" stroke-linecap="round" stroke-linejoin="round" stroke-miterlimit="10" data-original="#000000" opacity="1"></circle><path d="m162.712 285.87-25.37 25.37M17.309 431.416l-.144-.144c-9.555-9.555-9.555-25.046 0-34.6l95.733-95.733c3.905-3.905 10.237-3.905 14.142 0l20.602 20.602c3.905 3.905 3.905 10.237 0 14.142L51.91 431.416c-9.555 9.555-25.046 9.555-34.601 0zM90.58 329.132l28.87 28.87M330.931 118.982h124.178M369.022 176.342h86.087M369.022 233.702h86.087M342.787 291.062h112.322M238 348.422h217.109M238 405.782h217.109M346.555 481.659h0" style="stroke-width:20;stroke-linecap:round;stroke-linejoin:round;stroke-miterlimit:10;" fill="none" stroke="#ffffff" stroke-width="20" stroke-linecap="round" stroke-linejoin="round" stroke-miterlimit="10" data-original="#000000" opacity="1"></path></g></svg>