<svg xmlns="http://www.w3.org/2000/svg" version="1.1" xmlns:xlink="http://www.w3.org/1999/xlink" width="512" height="512" x="0" y="0" viewBox="0 0 1707 1707" style="enable-background:new 0 0 512 512" xml:space="preserve" fill-rule="evenodd" class=""><g><path d="M1209 967c-19 0-55 4-55-29 0-34 36-29 55-29 38 0 38 58 0 58zM167 371C78 371 5 298 5 209 5 119 78 46 167 46c90 0 162 73 162 163 0 89-72 162-162 162zm0-267c-57 0-104 47-104 105 0 57 47 104 104 104 58 0 104-47 104-104 0-58-46-105-104-105zm1420 252c-64 0-115-52-115-115 0-64 51-115 115-115 63 0 115 51 115 115 0 63-52 115-115 115zm0-172c-76 0-76 114 0 114 75 0 75-114 0-114zm-45 1476H165c-38 0-38-58 0-58h1377c38 0 38 58 0 58zM854 316c-16 0-29-13-29-29V181c0-38 58-38 58 0v106c0 16-13 29-29 29zm201 27c-19 0-33-18-28-37l28-102c9-37 65-22 56 15l-28 102c-3 13-15 22-28 22zm-403 0c-13 0-25-9-28-22l-28-102c-10-37 46-52 56-15l28 102c4 19-10 37-28 37zm1021 1186H34c-16 0-29-13-29-29V450c0-16 13-29 29-29h1639c16 0 29 13 29 29v1050c0 16-13 29-29 29zM63 1471h516v-167c0-16 13-29 29-29h491c16 0 29 13 29 29v167h516V479H63zm778-388H154c-16 0-29-13-29-29V570c0-16 13-29 29-29h1399c16 0 29 13 29 29v484c0 16-13 29-29 29H841zm-658-58h629V599H183zm871 0V599H870v426zm58 0h412V599h-412zm341-310c-19 0-55 5-55-29 0-33 36-29 55-29 38 0 38 58 0 58zm0 126c-19 0-55 4-55-29 0-34 36-29 55-29 38 0 38 58 0 58zm0 126c-19 0-55 4-55-29 0-34 36-29 55-29 38 0 38 58 0 58zM738 715c-19 0-55 5-55-29 0-33 36-29 55-29 38 0 38 58 0 58zm0 126c-19 0-55 4-55-29 0-34 36-29 55-29 38 0 38 58 0 58zm0 126c-19 0-55 4-55-29 0-34 36-29 55-29 38 0 38 58 0 58zm-102 504h434v-138H636zm294-40H777c-38 0-38-58 0-58h153c38 0 38 58 0 58zM476 847H265c-16 0-29-13-29-29V705c0-16 13-29 29-29h211c16 0 29 13 29 29v113c0 16-13 29-29 29zm-182-58h153v-55H294zm182 159H265c-38 0-38-58 0-58h211c38 0 38 58 0 58zm140-233c-19 0-55 5-55-29 0-33 36-29 55-29 38 0 38 58 0 58zm0 126c-19 0-55 4-55-29 0-34 36-29 55-29 38 0 38 58 0 58zm0 126c-19 0-55 4-55-29 0-34 36-29 55-29 38 0 38 58 0 58zm359-252c-19 0-55 5-55-29 0-33 36-29 55-29 38 0 38 58 0 58zm0 126c-19 0-55 4-55-29 0-34 36-29 55-29 38 0 38 58 0 58zm0 126c-19 0-55 4-55-29 0-34 36-29 55-29 38 0 38 58 0 58zm356-252c-19 0-55 5-55-29 0-33 36-29 55-29 38 0 38 58 0 58zm0 126c-19 0-55 4-55-29 0-34 36-29 55-29 38 0 38 58 0 58zm0 126c-19 0-55 4-55-29 0-34 36-29 55-29 38 0 38 58 0 58zm-122-252c-19 0-55 5-55-29 0-33 36-29 55-29 38 0 38 58 0 58zm0 126c-19 0-55 4-55-29 0-34 36-29 55-29 38 0 38 58 0 58z" fill="#ffffff" opacity="1" data-original="#000000" class=""></path></g></svg>