<svg xmlns="http://www.w3.org/2000/svg" version="1.1" xmlns:xlink="http://www.w3.org/1999/xlink" width="512" height="512" x="0" y="0" viewBox="0 0 60 60" style="enable-background:new 0 0 512 512" xml:space="preserve" class=""><g><path d="M30 25a9 9 0 1 0-9-9 9.01 9.01 0 0 0 9 9Zm0-16a7 7 0 1 1-7 7 7.008 7.008 0 0 1 7-7Z" fill="#cf0808" opacity="1" data-original="#000000" class=""></path><path d="M30 21a5 5 0 1 0-5-5 5.006 5.006 0 0 0 5 5Zm0-8a3 3 0 1 1-3 3 3 3 0 0 1 3-3Z" fill="#cf0808" opacity="1" data-original="#000000" class=""></path><path d="M60 38a1.993 1.993 0 0 0-1.354-1.882L48.529 32.5l10.118-3.619a1.984 1.984 0 0 0 0-3.762l-15.7-5.62c.027-.1.061-.2.085-.3l1.847-.565a1.506 1.506 0 0 0 1.068-1.308c.04-.437.059-.88.059-1.326s-.019-.889-.059-1.326a1.508 1.508 0 0 0-1.069-1.309l-1.852-.565a13.22 13.22 0 0 0-1.555-3.747l.907-1.7a1.507 1.507 0 0 0-.168-1.684q-.422-.505-.9-.978t-.979-.9a1.509 1.509 0 0 0-1.681-.168l-1.708.908A13.257 13.257 0 0 0 33.2 2.973l-.564-1.847a1.515 1.515 0 0 0-1.31-1.068 14.774 14.774 0 0 0-2.652 0 1.511 1.511 0 0 0-1.309 1.069L26.8 2.973a13.257 13.257 0 0 0-3.746 1.556l-1.706-.907a1.512 1.512 0 0 0-1.685.169c-.336.28-.662.58-.977.9s-.616.641-.9.977a1.507 1.507 0 0 0-.17 1.683l.908 1.707a13.268 13.268 0 0 0-1.55 3.742l-1.847.565a1.506 1.506 0 0 0-1.068 1.308c-.04.437-.059.88-.059 1.326s.019.889.059 1.324a1.509 1.509 0 0 0 1.069 1.311l1.846.564c.024.1.058.2.085.3L1.353 25.119a1.984 1.984 0 0 0 0 3.762L11.471 32.5 1.353 36.118a1.985 1.985 0 0 0 0 3.764L10.072 43l-8.719 3.119a1.985 1.985 0 0 0 0 3.764l27.928 9.991a2.106 2.106 0 0 0 1.435 0l27.93-9.991a1.985 1.985 0 0 0 0-3.764L49.929 43l8.718-3.118A1.993 1.993 0 0 0 60 38ZM16.025 16.817a13.016 13.016 0 0 1 0-1.634l2.09-.639a1 1 0 0 0 .69-.762 11.3 11.3 0 0 1 1.712-4.125 1 1 0 0 0 .052-1.027L19.54 6.7c.18-.2.366-.4.561-.595s.392-.382.6-.561l1.935 1.029a1 1 0 0 0 1.027-.053 11.318 11.318 0 0 1 4.118-1.72 1 1 0 0 0 .762-.688l.64-2.091a13.1 13.1 0 0 1 1.634 0l.64 2.091a1 1 0 0 0 .762.688 11.291 11.291 0 0 1 4.123 1.712 1 1 0 0 0 1.027.053L39.3 5.54c.2.179.4.367.595.561s.381.392.561.595L39.431 8.63a1 1 0 0 0 .052 1.028 11.281 11.281 0 0 1 1.717 4.124 1 1 0 0 0 .69.762l2.09.639a13.016 13.016 0 0 1 0 1.634l-2.09.639a1 1 0 0 0-.69.762 11.3 11.3 0 0 1-1.712 4.125 1 1 0 0 0-.052 1.027l1.024 1.93c-.18.2-.366.4-.561.6s-.392.382-.595.561l-1.935-1.029a1 1 0 0 0-1.027.053 11.291 11.291 0 0 1-4.123 1.715 1 1 0 0 0-.762.688l-.64 2.091a13.1 13.1 0 0 1-1.634 0l-.64-2.091a1 1 0 0 0-.762-.688 11.288 11.288 0 0 1-4.124-1.713 1 1 0 0 0-1.027-.052l-1.93 1.024c-.2-.178-.4-.366-.6-.56s-.381-.392-.561-.6l1.029-1.934a1 1 0 0 0-.052-1.028 11.281 11.281 0 0 1-1.712-4.124 1 1 0 0 0-.69-.762Zm1.7 4.568a13.4 13.4 0 0 0 .806 1.561l-.907 1.7a1.507 1.507 0 0 0 .168 1.684q.422.505.9.978t.979.9a1.512 1.512 0 0 0 1.681.168l1.707-.908a13.275 13.275 0 0 0 3.741 1.559l.564 1.847a1.511 1.511 0 0 0 1.309 1.067c.437.04.88.059 1.326.059s.889-.019 1.326-.059a1.51 1.51 0 0 0 1.309-1.069l.564-1.845a13.257 13.257 0 0 0 3.746-1.556l1.706.907a1.51 1.51 0 0 0 1.685-.169c.336-.28.662-.58.977-.9s.616-.641.9-.977a1.507 1.507 0 0 0 .17-1.683l-.908-1.707a13.394 13.394 0 0 0 .805-1.561L57.973 27l-28.016 9.988L2.027 27ZM57.973 48l-28.016 9.991L2.027 48l11.013-3.94 16.242 5.809a2.106 2.106 0 0 0 1.435 0l16.243-5.807Zm-28.016-.012L2.027 38l12.413-4.438 14.842 5.309a2.106 2.106 0 0 0 1.435 0l14.843-5.309L57.973 38Z" fill="#cf0808" opacity="1" data-original="#000000" class=""></path><path d="m27.35 43.059-11.183-4a1 1 0 0 0-.674 1.882l11.183 4a.989.989 0 0 0 .337.059 1 1 0 0 0 .337-1.941ZM27.35 53.059l-11.183-4a1 1 0 0 0-.674 1.882l11.183 4a.989.989 0 0 0 .337.059 1 1 0 0 0 .337-1.941Z" fill="#cf0808" opacity="1" data-original="#000000" class=""></path></g></svg>