<svg xmlns="http://www.w3.org/2000/svg" version="1.1" xmlns:xlink="http://www.w3.org/1999/xlink" width="512" height="512" x="0" y="0" viewBox="0 0 60 60" style="enable-background:new 0 0 512 512" xml:space="preserve" class=""><g><path d="M2.027 60h55.946a2.022 2.022 0 0 0 1.611-.79 1.972 1.972 0 0 0 .351-1.717A6.042 6.042 0 0 0 56 53.325V26.618A3.962 3.962 0 0 0 57 24a4 4 0 0 0-8 0 3.962 3.962 0 0 0 1 2.618V34.1C46.26 37.3 39.819 41 30 41c-9.8 0-16.253-3.712-20-6.92v-7.462A3.962 3.962 0 0 0 11 24a4 4 0 0 0-8 0 3.962 3.962 0 0 0 1 2.618v26.71a6.171 6.171 0 0 0-2.342 1.422A6.053 6.053 0 0 0 .065 57.5a1.969 1.969 0 0 0 .351 1.71 2.02 2.02 0 0 0 1.611.79ZM58 57.986a.031.031 0 0 1-.029.014H48a4.016 4.016 0 0 1 1.058-1.821A4.176 4.176 0 0 1 51.979 55h2.042A4.1 4.1 0 0 1 58 57.986ZM53 28a3.939 3.939 0 0 0 1-.142v1.851a19.046 19.046 0 0 1-2 2.482v-4.333A3.939 3.939 0 0 0 53 28Zm1 5v20h-2V35.046A26.111 26.111 0 0 0 54 33Zm-1-11a2 2 0 1 1-2 2 2 2 0 0 1 2-2ZM30 43c9.406 0 15.878-3.145 20-6.282v16.61a6.17 6.17 0 0 0-2.341 1.421 6.028 6.028 0 0 0-1.594 2.751 1.981 1.981 0 0 0-.06.505H14a1.991 1.991 0 0 0-.06-.507A6.042 6.042 0 0 0 10 53.325V36.718C14.122 39.855 20.594 43 30 43ZM7 28a3.939 3.939 0 0 0 1-.142v4.32a19.279 19.279 0 0 1-2-2.471v-1.849A3.939 3.939 0 0 0 7 28Zm1 7.046V53H6V33a26.111 26.111 0 0 0 2 2.046ZM7 22a2 2 0 1 1-2 2 2 2 0 0 1 2-2ZM3.058 56.179A4.176 4.176 0 0 1 5.979 55h2.042A4.1 4.1 0 0 1 12 57.986s-.008.014-.029.014H2a4.035 4.035 0 0 1 1.058-1.821Z" fill="#ffffff" opacity="1" data-original="#000000" class=""></path><path d="M35 31a3.962 3.962 0 0 0 2.618-1H44a2 2 0 0 0 2-2v-2a2 2 0 0 0-2-2h-6.382a3.944 3.944 0 0 0-.8-.545l-1.991-4.981 6.607-2.174a3.007 3.007 0 0 0 1.913-3.788l-.937-2.85-2.5-7.6A3 3 0 0 0 36.124.15L12.376 7.958a2 2 0 0 0-.8 3.309l2.824 2.838.166.5-1.9.624a2 2 0 0 0-1.275 2.526l.936 2.849a2 2 0 0 0 2.526 1.276l1.9-.624a3 3 0 0 0 3.787 1.913l8.576-2.819 2.129 5.334A3.948 3.948 0 0 0 31 27a4 4 0 0 0 4 4Zm-2-4a2 2 0 0 1 2-2 1.97 1.97 0 0 1 .73.143l.019.006A2 2 0 1 1 33 27Zm11 1h-5.142a3.592 3.592 0 0 0 0-2H44ZM36.749 2.051a1 1 0 0 1 1.262.637l2.189 6.65-20.9 6.871-3.275-3.3L13 9.858ZM14.223 19.982l-.937-2.849 1.9-.624.937 2.849Zm5.687 1.289a1 1 0 0 1-1.263-.637l-1.1-3.353.334.336a1.988 1.988 0 0 0 1.416.593 2.013 2.013 0 0 0 .629-.1l20.9-6.871.624 1.9a1 1 0 0 1-.637 1.263ZM32.919 19.1l1.581 3.951a3.961 3.961 0 0 0-1.862.739l-1.623-4.063Z" fill="#ffffff" opacity="1" data-original="#000000" class=""></path><path d="M18.549 12.192a1 1 0 0 0 .312-.049L36.1 6.476a1 1 0 0 0-.625-1.9l-17.239 5.666a1 1 0 0 0 .313 1.95Z" fill="#ffffff" opacity="1" data-original="#000000" class=""></path></g></svg>