<svg xmlns="http://www.w3.org/2000/svg" version="1.1" xmlns:xlink="http://www.w3.org/1999/xlink" width="512" height="512" x="0" y="0" viewBox="0 0 512 512" style="enable-background:new 0 0 512 512" xml:space="preserve"><g><path d="M428.116 464.042c-5.42-99.662-35.349-155.401-68.75-207.189 26.931-27.292 41.7-63.241 41.7-101.786C401.067 75.076 335.99 10 256 10S110.934 75.076 110.934 155.066c0 38.545 14.769 74.494 41.699 101.786-33.4 51.788-63.329 107.527-68.75 207.189-.551 10.116 2.841 19.354 9.809 26.711 6.967 7.358 16.005 11.247 26.139 11.247h272.336c10.134 0 19.173-3.889 26.14-11.246 6.969-7.357 10.361-16.595 9.809-26.711zM122.934 155.066C122.934 81.693 182.627 22 256 22c73.374 0 133.067 59.693 133.067 133.066 0 36.101-14.133 69.716-39.836 94.934H162.769c-25.703-25.217-39.835-58.832-39.835-94.934zM163.594 262h184.813c32.122 49.659 61.121 102.729 67.341 196.368H96.253c6.219-93.639 35.219-146.709 67.341-196.368zm228.574 228H119.832c-6.852 0-12.715-2.522-17.426-7.498-3.414-3.605-5.474-7.611-6.238-12.134h319.665c-.764 4.522-2.823 8.529-6.238 12.135-4.711 4.975-10.574 7.497-17.427 7.497zM256 239.745c46.692 0 84.679-37.986 84.679-84.679S302.692 70.388 256 70.388s-84.679 37.986-84.679 84.679 37.987 84.678 84.679 84.678zm0-157.357c40.075 0 72.679 32.604 72.679 72.679S296.075 227.745 256 227.745c-40.076 0-72.679-32.604-72.679-72.679S215.924 82.388 256 82.388zm.001 106.294c18.536 0 33.615-15.08 33.615-33.615 0-18.536-15.08-33.616-33.615-33.616s-33.616 15.08-33.616 33.616c0 18.535 15.08 33.615 33.616 33.615zm0-55.232c11.919 0 21.615 9.697 21.615 21.616s-9.696 21.615-21.615 21.615-21.616-9.696-21.616-21.615 9.697-21.616 21.616-21.616zm39.597 237.49a6 6 0 0 1-8.485 8.486c-17.157-17.154-45.07-17.156-62.225 0a5.984 5.984 0 0 1-4.243 1.757 6 6 0 0 1-4.243-10.243c21.834-21.832 57.36-21.832 79.196 0zM189.03 343.57c36.927-36.929 97.012-36.928 133.939 0a5.999 5.999 0 0 1-4.243 10.242 5.98 5.98 0 0 1-4.243-1.758c-32.247-32.247-84.719-32.247-116.968 0a5.998 5.998 0 0 1-8.485 0 5.999 5.999 0 0 1 0-8.484zM264 410.539c0 4.406-3.594 8-8 8s-8-3.594-8-8 3.594-8 8-8c4.407 0 8 3.594 8 8z" fill="#ffffff" opacity="1" data-original="#000000"></path></g></svg>