<svg xmlns="http://www.w3.org/2000/svg" version="1.1" xmlns:xlink="http://www.w3.org/1999/xlink" width="512" height="512" x="0" y="0" viewBox="0 0 500 500" style="enable-background:new 0 0 512 512" xml:space="preserve" class=""><g><path fill-rule="evenodd" d="M432.293 462.519c-12.869 0-23.346-10.511-23.347-23.334 0-12.88 10.477-23.392 23.346-23.393 12.88 0 23.346 10.512 23.347 23.392 0 12.822-10.466 23.334-23.346 23.335zm-167.641-73.985-.004-150.577 150.577-.004c-1.183 27.435-9.408 53.023-22.888 75.087l-29.261-26.626c-2.796-2.541-7.139-2.31-9.68.462-2.547 2.83-2.339 7.162.462 9.703l30.745 27.954c-27.445 37.141-70.815 61.862-119.951 64.001zm-50.136-62.494a6.815 6.815 0 0 0-9.467 2.022l-25.523 39.912a156.777 156.777 0 0 1-30.757-23.103h.011c-3.901-3.711-7.549-7.613-11.032-11.725l113.193-88.027.004 143.415c-20.787-.924-40.824-5.775-59.186-14.265l24.835-38.815a6.78 6.78 0 0 0-2.078-9.414zm-96.004-168.653C90.717 209.924 94.81 274.114 129.3 322.403l116.3-90.51-69.184-40.545.521 34.424c.058 3.812-2.969 6.931-6.752 6.989-3.829.029-6.9-2.971-6.954-6.758l-.642-42.799zm173.53 31.07.001 35.81-27.395.001-.001-35.81zm41.117-86.35.003 122.16-27.406.001-.003-122.16zm41.102 45.859.002 76.299-27.395.001-.002-76.299zm41.105-87.101.004 163.399-27.395.001-.004-163.399zM67.708 439.02c-12.869 0-23.34-10.454-23.341-23.334 0-12.88 10.471-23.335 23.34-23.335 12.874 0 23.346 10.454 23.347 23.334 0 12.88-10.471 23.334-23.346 23.335zM81.377 84.15c-12.874 0-23.346-10.454-23.347-23.334 0-12.88 10.471-23.335 23.346-23.335 12.874 0 23.346 10.454 23.346 23.334S94.251 84.15 81.377 84.15zm357.771 318.588-.001-44.128c0-1.906-.815-3.754-2.241-5.083l-34.252-31.131c16.617-26.281 26.29-57.355 26.417-90.624h.006l-.004-177.781c0-3.754-3.067-6.815-6.85-6.815l-41.107.001c-3.795 0-6.856 3.061-6.856 6.816l.002 80.227-27.395.001-.001-38.987c0-3.754-3.073-6.816-6.856-6.815l-41.113.001c-3.783 0-6.856 3.061-6.856 6.816l.002 79.476-34.245.001c-3.783 0-6.856 3.119-6.856 6.874l.001 37.543-74.764-43.837-.96-64.343a6.838 6.838 0 0 0-3.425-5.834l-55.455-31.997c8.418-24.107-9.422-49.326-34.963-49.325-20.43-.001-37.053 16.576-37.052 37.023s16.624 37.081 37.053 37.08c11.217 0 21.284-5.025 28.082-12.939l52.111 30.091.781 52.156-42.933-25.182c-3.263-1.906-7.468-.808-9.38 2.426-15.392 26.223-23.518 56.142-23.517 86.697.001 43.145 15.906 84.083 44.812 115.458 12.328 13.381 25.266 23.921 40.79 32.921l-18.742 29.284-49.257.001c-3.229-17.154-18.328-30.207-36.418-30.207-20.429 0-37.052 16.635-37.051 37.082s16.624 37.023 37.053 37.023c18.09 0 33.188-12.996 36.416-30.151l53.011-.001a6.865 6.865 0 0 0 5.77-3.177l21.405-33.443c22.596 10.742 47.576 16.46 73.493 16.46 55.945-.001 105.715-26.976 136.99-68.563l30.642 27.839.001 41.066c-17.166 3.235-30.196 18.31-30.195 36.446 0 20.389 16.624 37.023 37.053 37.023 20.435-.001 37.052-16.636 37.051-37.024-.001-18.136-13.031-33.211-30.197-36.445z" clip-rule="evenodd" fill="#ffffff" opacity="1" data-original="#000000" class=""></path></g></svg>