<svg xmlns="http://www.w3.org/2000/svg" version="1.1" xmlns:xlink="http://www.w3.org/1999/xlink" width="512" height="512" x="0" y="0" viewBox="0 0 75 75" style="enable-background:new 0 0 512 512" xml:space="preserve" class=""><g><path d="M44.285 70.254a.75.75 0 0 0 .75-.75c-.065-29.247.157-27.751-.175-28.147l-2.471-2.96a.75.75 0 0 0-1.152.961l1.596 1.911H30.127l-10.44-12.503h6.58a.75.75 0 0 0 0-1.5H7.315a.75.75 0 0 0-.75.75v41.488a.75.75 0 0 0 1.5 0V28.766h9.667L28.875 42.11v27.395a.75.75 0 0 0 1.5 0v-6.171h13.16v6.17c0 .415.336.75.75.75zm-13.91-8.421V42.769c13.29-.068 12.748.151 13.16-.163v19.227z" fill="#ffffff" opacity="1" data-original="#000000" class=""></path><path d="M24.22 64.933a.75.75 0 0 0 .75-.75V44.878a.748.748 0 0 0-.174-.48L16.41 34.351a.75.75 0 0 0-.575-.27h-3.992a.75.75 0 0 0-.75.75v29.351a.75.75 0 0 0 1.5 0v-28.6h2.89l7.989 9.566v19.034c0 .414.336.75.75.75zM35.815 25.441l-1.407 2.727a.75.75 0 0 0 1.333.687l1.407-2.726a.75.75 0 1 0-1.333-.688zM39.68 25.094l-2.361 4.576a.75.75 0 0 0 1.333.687l2.36-4.576a.75.75 0 0 0-1.332-.687zM44.507 21.49c.784 0 1.041-1.058.345-1.418l-1.072-.553a.75.75 0 0 0-.688 1.334c.993.486 1.107.636 1.415.636zM41.114 18.143l-2.666-1.375a.751.751 0 0 0-.688 1.334c2.753 1.387 2.684 1.458 3.01 1.458.783 0 1.04-1.056.344-1.417z" fill="#ffffff" opacity="1" data-original="#000000" class=""></path><path d="M48.153 20.976a.753.753 0 0 0-1.01.324L38.53 37.906l-2.813-1.544a3.147 3.147 0 0 0-1.633-3.44c-1.255-.65-2.796-.375-3.834.71l-2.347-1.256 11.523-22.241 2.33 1.2c.005.008.019.044.007.098a.749.749 0 0 0 .58.888.746.746 0 0 0 .888-.579c.151-.718-.165-1.417-.79-1.74L40.113 8.8a1.54 1.54 0 0 0-2.076.664L26.569 31.688a1.542 1.542 0 0 0 .664 2.077l2.328 1.2c.624.324 1.378.175 1.876-.365a1.646 1.646 0 0 1 1.958-.345 1.644 1.644 0 0 1 .854 1.796c-.153.718.163 1.418.788 1.74l2.805 1.448c.764.392 1.69.085 2.076-.664l8.558-16.588a.75.75 0 0 0-.323-1.01zM62.938 19.938l3.154.294a1.261 1.261 0 0 0 1.373-1.14l.964-10.334a1.264 1.264 0 0 0-1.139-1.372l-3.153-.294a1.26 1.26 0 0 0-1.373 1.138L61.8 18.564a1.263 1.263 0 0 0 1.138 1.374zm1.297-11.33 2.678.25-.92 9.859-.48-.045.262-2.818a.75.75 0 0 0-.677-.816.756.756 0 0 0-.816.678l-.263 2.816-.703-.065zM62.108 8.873c-.012-.414-.346-.726-.77-.73l-2.407.065c-1.13.044-1.551-.429-6.803-2.562-3.691-1.717-7.085-.657-9.283.534a.75.75 0 1 0 .715 1.318c1.896-1.026 4.812-1.947 7.96-.48l5.494 2.317c1.427.605 2.39.286 4.365.308a.75.75 0 0 0 .729-.77z" fill="#ffffff" opacity="1" data-original="#000000" class=""></path><path d="M53.04 19.266c.33.158.614.293 1.133.364 2.004.27 2.847-1.214 6.218-.982a.75.75 0 0 0 .105-1.496c-1.785-.126-3.126.168-4.557.702-.883.33-1.382.476-2.253.058a10.573 10.573 0 0 0-4.35-1.022l-4.164.032c-.36 0-.69-.14-.908-.383-.55-.615-.352-1.016-.277-1.166.163-.331.542-.557.986-.588l4.37-.303c1.217-.084 3.232-1.738 3.627-3.313.22-.882-.085-1.66-.84-2.133a.751.751 0 0 0-.796 1.271c.175.11.251.217.18.497-.245.983-1.75 2.146-2.274 2.182l-4.371.303c-2.058.144-3.395 2.38-1.723 4.25.506.566 1.27.854 2.047.883 3.19.087 5.146-.448 7.847.844zM39.497 50.323h-3.03a.75.75 0 0 0 0 1.5h1.163l-3.852 3.853a.75.75 0 1 0 1.06 1.06l3.91-3.909v1.163a.75.75 0 0 0 1.5 0v-2.917a.75.75 0 0 0-.75-.75z" fill="#ffffff" opacity="1" data-original="#000000" class=""></path></g></svg>